<svg width="115" height="20" viewBox="0 0 115 20" fill="none" xmlns="http://www.w3.org/2000/svg">
<path d="M104.049 2.92705C104.348 2.00574 105.652 2.00574 105.951 2.92705L107.021 6.21885C107.155 6.63087 107.538 6.90983 107.972 6.90983H111.433C112.402 6.90983 112.804 8.14945 112.021 8.71885L109.22 10.7533C108.87 11.0079 108.723 11.4593 108.857 11.8713L109.927 15.1631C110.226 16.0844 109.172 16.8506 108.388 16.2812L105.588 14.2467C105.237 13.9921 104.763 13.9921 104.412 14.2467L101.612 16.2812C100.828 16.8506 99.7739 16.0844 100.073 15.1631L101.143 11.8713C101.277 11.4593 101.13 11.0079 100.78 10.7533L97.9793 8.71885C97.1956 8.14945 97.5984 6.90983 98.5671 6.90983H102.028C102.462 6.90983 102.845 6.63087 102.979 6.21885L104.049 2.92705Z" fill="#EA8D02"/>
<path d="M80.0489 2.92705C80.3483 2.00574 81.6517 2.00574 81.9511 2.92705L83.0206 6.21885C83.1545 6.63087 83.5385 6.90983 83.9717 6.90983H87.4329C88.4016 6.90983 88.8044 8.14945 88.0207 8.71885L85.2205 10.7533C84.87 11.0079 84.7234 11.4593 84.8572 11.8713L85.9268 15.1631C86.2261 16.0844 85.1717 16.8506 84.388 16.2812L81.5878 14.2467C81.2373 13.9921 80.7627 13.9921 80.4122 14.2467L77.612 16.2812C76.8283 16.8506 75.7739 16.0844 76.0732 15.1631L77.1428 11.8713C77.2766 11.4593 77.13 11.0079 76.7795 10.7533L73.9793 8.71885C73.1956 8.14945 73.5984 6.90983 74.5671 6.90983H78.0283C78.4615 6.90983 78.8455 6.63087 78.9794 6.21885L80.0489 2.92705Z" fill="#EA8D02"/>
<path d="M56.0489 2.92705C56.3483 2.00574 57.6517 2.00574 57.9511 2.92705L59.0206 6.21885C59.1545 6.63087 59.5385 6.90983 59.9717 6.90983H63.4329C64.4016 6.90983 64.8044 8.14945 64.0207 8.71885L61.2205 10.7533C60.87 11.0079 60.7234 11.4593 60.8572 11.8713L61.9268 15.1631C62.2261 16.0844 61.1717 16.8506 60.388 16.2812L57.5878 14.2467C57.2373 13.9921 56.7627 13.9921 56.4122 14.2467L53.612 16.2812C52.8283 16.8506 51.7739 16.0844 52.0732 15.1631L53.1428 11.8713C53.2766 11.4593 53.13 11.0079 52.7795 10.7533L49.9793 8.71885C49.1956 8.14945 49.5984 6.90983 50.5671 6.90983H54.0283C54.4615 6.90983 54.8455 6.63087 54.9794 6.21885L56.0489 2.92705Z" fill="#EA8D02"/>
<path d="M32.0489 2.92705C32.3483 2.00574 33.6517 2.00574 33.9511 2.92705L35.0206 6.21885C35.1545 6.63087 35.5385 6.90983 35.9717 6.90983H39.4329C40.4016 6.90983 40.8044 8.14945 40.0207 8.71885L37.2205 10.7533C36.87 11.0079 36.7234 11.4593 36.8572 11.8713L37.9268 15.1631C38.2261 16.0844 37.1717 16.8506 36.388 16.2812L33.5878 14.2467C33.2373 13.9921 32.7627 13.9921 32.4122 14.2467L29.612 16.2812C28.8283 16.8506 27.7739 16.0844 28.0732 15.1631L29.1428 11.8713C29.2766 11.4593 29.13 11.0079 28.7795 10.7533L25.9793 8.71885C25.1956 8.14945 25.5984 6.90983 26.5671 6.90983H30.0283C30.4615 6.90983 30.8455 6.63087 30.9794 6.21885L32.0489 2.92705Z" fill="#EA8D02"/>
<path d="M9.04894 2.92705C9.3483 2.00574 10.6517 2.00574 10.9511 2.92705L12.0206 6.21885C12.1545 6.63087 12.5385 6.90983 12.9717 6.90983H16.4329C17.4016 6.90983 17.8044 8.14945 17.0207 8.71885L14.2205 10.7533C13.87 11.0079 13.7234 11.4593 13.8572 11.8713L14.9268 15.1631C15.2261 16.0844 14.1717 16.8506 13.388 16.2812L10.5878 14.2467C10.2373 13.9921 9.7627 13.9921 9.41221 14.2467L6.61204 16.2812C5.82833 16.8506 4.77385 16.0844 5.0732 15.1631L6.14277 11.8713C6.27665 11.4593 6.12999 11.0079 5.7795 10.7533L2.97933 8.71885C2.19562 8.14945 2.59839 6.90983 3.56712 6.90983H7.02832C7.46154 6.90983 7.8455 6.63087 7.97937 6.21885L9.04894 2.92705Z" fill="#EA8D02"/>
</svg>
